<?xml version="1.0" encoding="utf-8"?>
<!-- Generator: Adobe Illustrator 19.2.1, SVG Export Plug-In . SVG Version: 6.00 Build 0)  -->
<svg version="1.1" id="Layer_1" xmlns="http://www.w3.org/2000/svg" xmlns:xlink="http://www.w3.org/1999/xlink" x="0px" y="0px"
	 viewBox="0 0 800 230" style="enable-background:new 0 0 800 230;" xml:space="preserve">
<g>
	<path d="M576.5,75.5c0,1.9,0,3.9,0,5.8c-0.1,22.8-0.2,45.6-0.5,68.5c0,3.2-1,6.6-2.4,9.6c-3.9,8.8-13.5,12.4-21.6,7.2
		c-5-3.2-9.5-7.9-12.7-12.9c-14.5-22.7-28.5-45.8-42.7-68.7c-2.2-3.6-4.9-6.9-7.4-10.3c-0.4,0.2-0.8,0.3-1.2,0.5c0,29.5,0,59,0,88.8
		c-6.5,0-12.4,0-18.8,0c0-37.5,0-75.1,0-112.9c14.8-2.6,27.5,1.6,36.4,13.8c8.4,11.5,15.7,23.9,23.3,36c9.1,14.5,18,29.1,28,43.6
		c0-31.1,0-62.2,0-93.3c13.1-2,24.4,0.1,33.2,9.5c4.4,4.7,8.4,9.9,11.8,15.4c13.5,21.4,26.7,43,40,64.5c0.9,1.5,1.9,2.9,3.8,4.1
		c0-31,0-62,0-93.4c6.5,0,12.6,0,19.2,0c0,1.8,0,3.4,0,5c0,29.2,0.1,58.3-0.1,87.5c0,4.9-0.7,10.1-2.3,14.6
		c-3.6,9.9-13.9,13.7-22.8,7.9c-4.7-3.1-8.9-7.6-11.9-12.4c-14.6-22.9-28.6-46.1-42.9-69.1c-2.1-3.3-4.6-6.4-6.9-9.6
		C577.5,75.2,577,75.3,576.5,75.5z"/>
	<path d="M9.4,183.2c6.7,0,12.9,0,19.1,0c0.3,0.7,0.5,1.3,0.7,1.8c6.9,18.4,20.3,26.9,39.9,25.3c22.1-1.8,34.3-14.1,36.6-37.9
		c0.7-7,0.1-14.2,0.1-22.4c-2.2,2.3-3.8,4.2-5.6,5.8c-31.8,27.9-82,11.9-93.1-29.6c-7.3-27.1,2.3-55.4,23.4-69.7
		c18.9-12.8,52-15.6,72.9,7.8c0.5,0.6,1.2,1.1,2.4,2.3c0-5.5,0-10.3,0-15.6c6.6,0,12.6,0,18.9,0c0.1,0.6,0.4,1.2,0.4,1.8
		c0,39.3,0.2,78.6-0.3,117.9c-0.1,13.2-3.7,25.7-11.8,36.5c-8.6,11.5-20.5,17.1-34.4,19c-15.9,2.2-31.3,1.1-45.4-7.3
		C19.8,211,12.3,198.9,9.4,183.2z M64.9,63.6c-25.3,1.7-42.3,21.7-40.4,47.5c1.7,23.4,17.3,42.4,42.8,41.6
		c24.7-0.8,42.4-22.3,40.5-47.6C105.9,79.8,87.5,62.1,64.9,63.6z"/>
	<path d="M782.1,65.9c0-5.3,0-9.7,0-14.6c6.3,0,12.4,0,18.7,0c0,37.4,0,74.8,0,112.5c-6.1,0-12.1,0-18.6,0c0-4.5,0-8.7,0-13.9
		c-1.3,1-2,1.4-2.5,1.9c-26.7,28.7-80.3,19.6-94.4-23.6c-9.7-29.8,2.3-61.7,28.2-74.7c19.8-10,47.8-10.8,66.6,11
		C780.4,64.8,780.9,65,782.1,65.9z M701.8,108.7c0.5,13.6,5.1,26.8,17.9,35.8c23.4,16.5,56.8,2.7,63.1-25.9
		c5.1-22.6-5.7-45.5-25.1-52.6C733.2,57.1,702.5,70.7,701.8,108.7z"/>
	<path d="M449.1,137.9c-8.7,15.2-20.3,25.5-36.7,28.9c-37.6,7.9-69.6-15-73.5-52.5c-2.4-23.2,4.1-43.2,23.3-57.2
		c33.9-24.8,81.1-4.7,87.8,36.9c0.7,4.3,0.8,8.6,1,12.9c0.1,1.8-0.2,3.6-0.3,6.1c-15.7,0-31.1,0-46.5,0c-15.3,0-30.6,0-45.8,0
		c-0.7,15.5,11.9,32,28.5,36.7c14.3,4.1,27.4,1.9,38.1-9.4c1-1,2.3-2.3,3.6-2.4C435,137.7,441.6,137.9,449.1,137.9z M430.7,96.8
		c-0.7-18.7-17.9-34-37.4-33.3C375,64.1,358.5,80,358.9,96.8C382.8,96.8,406.7,96.8,430.7,96.8z"/>
	<path d="M264.2,108c0,34.6-26.4,61.1-61,61.1c-34.6,0.1-61.2-26.7-61.2-61.5c0-34.8,26.2-60.8,61.2-60.8
		C238.7,46.9,264.2,72.5,264.2,108z M203.1,64c-23.9,0-41.4,18.6-41.3,43.9c0.1,24.3,18.4,43.9,41.2,44c23.5,0.1,41.4-18.9,41.4-44
		C244.5,82.7,226.9,64,203.1,64z"/>
	<path d="M307.9,17c0,48.8,0,96.9,0,145.2c-6.4,0-12.5,0-18.9,0c0-48.4,0-96.5,0-145.1c-13.5,0-26.8,0-40.2,0c0-5.6,0-10.7,0-15.9
		c33.2,0,66.2,0,99.4,0c0,5.3,0,10.4,0,15.8C334.8,17,321.7,17,307.9,17z"/>
</g>
</svg>
