<?xml version="1.0" encoding="utf-8"?>
<!-- Generator: Adobe Illustrator 20.1.0, SVG Export Plug-In . SVG Version: 6.00 Build 0)  -->
<svg version="1.1" id="Layer_1" xmlns="http://www.w3.org/2000/svg" xmlns:xlink="http://www.w3.org/1999/xlink" x="0px" y="0px"
	 viewBox="0 0 467.2 80.4" style="enable-background:new 0 0 467.2 80.4;" xml:space="preserve">
<style type="text/css">
	.st0{fill:#4A90E2;}
</style>
<title>gTMesh</title>
<path class="st0" d="M163.4,36c0,0.8-0.1,1.7-0.2,2.5h-33.9c0,7.5,7,14.2,14.8,14.2c4.2,0.2,8.2-1.7,10.7-5h7.9
	c-3.5,6.9-10.7,11.2-18.4,11.1c-13.2,0-22-9.9-22-22.8c0-11.5,8.1-21.6,20.7-21.6C158,14.5,163.4,26.9,163.4,36z M129.4,32.8h26.8
	c-0.7-6.5-5.8-12.4-13.4-12.4C135.8,20.4,130,25.8,129.4,32.8L129.4,32.8z"/>
<path class="st0" d="M291.8,57.4h-6.9v-5.6h-0.2c-3.8,4.5-9.3,7.1-15.2,7c-11.3,0-21.4-8.8-21.4-22.3c0-12.8,9.4-22.1,21.8-22.1
	c7.5,0,12,4,14.8,7.4h0.1v-6h6.9L291.8,57.4z M270.5,52.8c7.8,0,15-6.6,15-16c0-9.9-6.7-16.4-14.8-16.4c-10.4,0-15.4,8.2-15.4,16.1
	S260.3,52.8,270.5,52.8L270.5,52.8z"/>
<path class="st0" d="M235.7,59c-2.5,0-5.1-1.7-7-4.8c-2.7-4.2-16.2-26.2-16.3-26.4c-0.8-1.4-1.8-2.6-3-3.7v26.3
	c0,6.1-2.9,7.9-4.6,8.4c-2.9,0.8-6.2-0.9-8.5-4.6c-2.7-4.2-16.2-26.2-16.4-26.4c-0.8-1.4-1.8-2.6-3-3.7v33.3H170V15.7h3.4
	c6.9,0,11,6.3,12.3,8.4c0.2,0.3,13.7,22.2,16.4,26.5l0.3,0.5c0-0.2,0-0.4,0-0.6V15.7h3.5c6.9,0,11,6.3,12.3,8.4
	c0.2,0.3,13.7,22.2,16.4,26.5l0.3,0.5c0-0.2,0-0.4,0-0.6V15.8h6.9v34.6c0,6.1-2.9,7.9-4.6,8.4C236.7,58.9,236.2,59,235.7,59z"/>
<polygon class="st0" points="125.9,0 89.3,0 89.3,5.7 104.2,5.7 104.2,56.7 111,56.7 111,5.7 125.9,5.7 "/>
<path class="st0" d="M44.1,56.5c0,15.2-7,23.9-21.7,23.9c-11.7,0-19-6.5-20.7-16.1h7c1.5,5.6,5.3,10,14,10c9.4,0,14.5-6.1,14.5-17
	V52h-0.2c-3.8,4.6-9.4,7.3-15.4,7.3C10,59.3-0.1,50.4-0.1,36.8c0-13,9.2-22.4,21.5-22.4c6-0.1,11.8,2.7,15.5,7.5h0.2v-6H44
	L44.1,56.5z M22.5,53.2c8.2,0,15.3-6.7,15.3-16.2c0-10-6.7-16.6-15.1-16.6c-10.3,0-15.5,8.3-15.5,16.3S12.4,53.2,22.5,53.2
	L22.5,53.2z"/>
<path class="st0" d="M72.6,14.4c13,0,22.4,9.6,22.4,22.3C95,49,85,59,72.6,59c-12.4,0-22.4-10-22.4-22.4
	C50.3,23.8,60.1,14.4,72.6,14.4z M72.6,52.9c8.8,0,15.2-7,15.2-16.2c0-8.8-6-16.1-15.2-16.1c-8.9,0-15.2,6.8-15.2,16.1
	C57.4,46.1,64.6,52.9,72.6,52.9z"/>
<path class="st0" d="M356.1,57.2h-2.7L349.6,33c-0.6-4-1.3-8.1-1.9-12h-0.2c-1.2,3.7-2.8,8.2-4.1,12l-8.7,24.4h-2.4l-9-25.5
	c-1.2-3.4-2.5-7.6-3.5-10.9h-0.2c-0.3,3-0.7,5.9-1.5,10.8l-4,25.5h-2.6l6.6-41.7h2.4l10.2,29c0.9,2.6,2,6,2.8,8.6h0.2
	c0.8-2.6,2-6.1,2.9-8.6l10.4-29h2.4L356.1,57.2z"/>
<path class="st0" d="M387.9,18h-20.1v16.4h19.4v2.4h-19.4v18h20.8v2.4h-23.5V15.6h22.8V18z"/>
<path class="st0" d="M420.8,24.4c-0.5-4.3-4-7.8-9.3-7.8c-5.8,0-9.5,2.6-9.5,7.5c0,4.5,2.7,6.6,10.9,9.6c8.7,3.2,11.5,7.1,11.5,12.8
	c0,7.4-5.2,12.1-13.2,12.1s-13.1-4.5-13.7-11.6h2.8c0.7,6.4,5.4,9.3,10.9,9.3c6.3,0,10.4-3.5,10.4-9.4c0-5.2-2-8-10.4-11.1
	c-9-3.3-12-6.7-12-11.7c0-5.6,4.7-9.8,12.1-9.8c7.6,0,11.8,4.8,12.3,10.1L420.8,24.4z"/>
<path class="st0" d="M464.5,36.9h-27.4v20.4h-2.8V15.6h2.8v18.8h27.4V15.6h2.8v41.7h-2.8V36.9z"/>
<path class="st0" d="M163.4,36c0,0.8-0.1,1.7-0.2,2.5h-33.9c0,7.5,7,14.2,14.8,14.2c4.2,0.2,8.2-1.7,10.7-5h7.9
	c-3.5,6.9-10.7,11.2-18.4,11.1c-13.2,0-22-9.9-22-22.8c0-11.5,8.1-21.6,20.7-21.6C158,14.5,163.4,26.9,163.4,36z M129.4,32.8h26.8
	c-0.7-6.5-5.8-12.4-13.4-12.4C135.8,20.4,130,25.8,129.4,32.8L129.4,32.8z"/>
<path class="st0" d="M291.8,57.4h-6.9v-5.6h-0.2c-3.8,4.5-9.3,7.1-15.2,7c-11.3,0-21.4-8.8-21.4-22.3c0-12.8,9.4-22.1,21.8-22.1
	c7.5,0,12,4,14.8,7.4h0.1v-6h6.9L291.8,57.4z M270.5,52.8c7.8,0,15-6.6,15-16c0-9.9-6.7-16.4-14.8-16.4c-10.4,0-15.4,8.2-15.4,16.1
	S260.3,52.8,270.5,52.8L270.5,52.8z"/>
<path class="st0" d="M235.7,59c-2.5,0-5.1-1.7-7-4.8c-2.7-4.2-16.2-26.2-16.3-26.4c-0.8-1.4-1.8-2.6-3-3.7v26.3
	c0,6.1-2.9,7.9-4.6,8.4c-2.9,0.8-6.2-0.9-8.5-4.6c-2.7-4.2-16.2-26.2-16.4-26.4c-0.8-1.4-1.8-2.6-3-3.7v33.3H170V15.7h3.4
	c6.9,0,11,6.3,12.3,8.4c0.2,0.3,13.7,22.2,16.4,26.5l0.3,0.5c0-0.2,0-0.4,0-0.6V15.7h3.5c6.9,0,11,6.3,12.3,8.4
	c0.2,0.3,13.7,22.2,16.4,26.5l0.3,0.5c0-0.2,0-0.4,0-0.6V15.8h6.9v34.6c0,6.1-2.9,7.9-4.6,8.4C236.7,58.9,236.2,59,235.7,59z"/>
<polygon class="st0" points="125.9,0 89.3,0 89.3,5.7 104.2,5.7 104.2,56.7 111,56.7 111,5.7 125.9,5.7 "/>
<path class="st0" d="M44.1,56.5c0,15.2-7,23.9-21.7,23.9c-11.7,0-19-6.5-20.7-16.1h7c1.5,5.6,5.3,10,14,10c9.4,0,14.5-6.1,14.5-17
	V52h-0.2c-3.8,4.6-9.4,7.3-15.4,7.3C10,59.3-0.1,50.4-0.1,36.8c0-13,9.2-22.4,21.5-22.4c6-0.1,11.8,2.7,15.5,7.5h0.2v-6H44
	L44.1,56.5z M22.5,53.2c8.2,0,15.3-6.7,15.3-16.2c0-10-6.7-16.6-15.1-16.6c-10.3,0-15.5,8.3-15.5,16.3S12.4,53.2,22.5,53.2
	L22.5,53.2z"/>
<path class="st0" d="M72.6,14.4c13,0,22.4,9.6,22.4,22.3C95,49,85,59,72.6,59c-12.4,0-22.4-10-22.4-22.4
	C50.3,23.8,60.1,14.4,72.6,14.4z M72.6,52.9c8.8,0,15.2-7,15.2-16.2c0-8.8-6-16.1-15.2-16.1c-8.9,0-15.2,6.8-15.2,16.1
	C57.4,46.1,64.6,52.9,72.6,52.9z"/>
<path class="st0" d="M356.1,57.2h-2.7L349.6,33c-0.6-4-1.3-8.1-1.9-12h-0.2c-1.2,3.7-2.8,8.2-4.1,12l-8.7,24.4h-2.4l-9-25.5
	c-1.2-3.4-2.5-7.6-3.5-10.9h-0.2c-0.3,3-0.7,5.9-1.5,10.8l-4,25.5h-2.6l6.6-41.7h2.4l10.2,29c0.9,2.6,2,6,2.8,8.6h0.2
	c0.8-2.6,2-6.1,2.9-8.6l10.4-29h2.4L356.1,57.2z"/>
<path class="st0" d="M387.9,18h-20.1v16.4h19.4v2.4h-19.4v18h20.8v2.4h-23.5V15.6h22.8V18z"/>
<path class="st0" d="M420.8,24.4c-0.5-4.3-4-7.8-9.3-7.8c-5.8,0-9.5,2.6-9.5,7.5c0,4.5,2.7,6.6,10.9,9.6c8.7,3.2,11.5,7.1,11.5,12.8
	c0,7.4-5.2,12.1-13.2,12.1s-13.1-4.5-13.7-11.6h2.8c0.7,6.4,5.4,9.3,10.9,9.3c6.3,0,10.4-3.5,10.4-9.4c0-5.2-2-8-10.4-11.1
	c-9-3.3-12-6.7-12-11.7c0-5.6,4.7-9.8,12.1-9.8c7.6,0,11.8,4.8,12.3,10.1L420.8,24.4z"/>
<path class="st0" d="M464.5,36.9h-27.4v20.4h-2.8V15.6h2.8v18.8h27.4V15.6h2.8v41.7h-2.8V36.9z"/>
</svg>
