<svg id="Kickstarter_logo" data-name="Kickstarter logo" xmlns="http://www.w3.org/2000/svg" viewBox="0 0 467.42 54.6"><defs><style>.cls-1{fill:#fff;}</style></defs><title>kickstarter-logo</title><path id="Logo" class="cls-1" d="M17.08,18.93,26.71,5A8.27,8.27,0,0,1,33.77,1a8.48,8.48,0,0,1,6.11,2.5,8.07,8.07,0,0,1,2.58,6,7.81,7.81,0,0,1-1.37,4.55L32.41,26.71,43,40.18a7.36,7.36,0,0,1,1.59,4.71A8.46,8.46,0,0,1,42.12,51,8.18,8.18,0,0,1,36,53.58a7.2,7.2,0,0,1-6-2.54l-13-16.24v9a11.24,11.24,0,0,1-1.33,6,7.83,7.83,0,0,1-7.06,3.87,7.94,7.94,0,0,1-6.53-2.85A10.56,10.56,0,0,1,0,43.79V10.59A10.23,10.23,0,0,1,2.2,3.83,7.81,7.81,0,0,1,8.58,1,8.4,8.4,0,0,1,15,3.83,7.15,7.15,0,0,1,16.85,7a19.44,19.44,0,0,1,.23,3.68Zm47.87-7.32V43.75a10.62,10.62,0,0,1-2.16,6.87,7.69,7.69,0,0,1-6.41,3A8.32,8.32,0,0,1,50,50.81q-2.16-2.32-2.16-7.06V11.61q0-5.39,2.16-7.82a8.67,8.67,0,0,1,12.67,0Q64.94,6.26,64.94,11.61ZM95.67,0a27,27,0,0,1,17.38,6.34q6.22,5,6.22,10.36a8,8,0,0,1-3.79,7.06,8.3,8.3,0,0,1-4.7,1.44,8.53,8.53,0,0,1-4-1,26.15,26.15,0,0,1-3.95-3.83,10,10,0,0,0-14.44-.25,9.91,9.91,0,0,0-2.87,7.19,9.87,9.87,0,0,0,2.87,7.15,9.49,9.49,0,0,0,7.08,2.94A10.3,10.3,0,0,0,102,35.06q1.86-1.78,3.68-3.57a7.38,7.38,0,0,1,5-1.71,8.46,8.46,0,0,1,6.05,2.45,7.9,7.9,0,0,1,2.56,5.94q0,4.74-5.58,9.6A26.63,26.63,0,0,1,95.64,54.6a27.29,27.29,0,0,1-12-2.69,26.91,26.91,0,0,1-11.29-10A26.52,26.52,0,0,1,68.2,27.4a26.59,26.59,0,0,1,8.73-20A26.55,26.55,0,0,1,95.67,0ZM139.5,18.93l9.64-14A8.27,8.27,0,0,1,156.2,1a8.48,8.48,0,0,1,6.11,2.5,8.07,8.07,0,0,1,2.58,6,7.8,7.8,0,0,1-1.37,4.55l-8.69,12.63,10.62,13.47a7.36,7.36,0,0,1,1.59,4.71,8.46,8.46,0,0,1-2.5,6.13,8.18,8.18,0,0,1-6.07,2.56,7.2,7.2,0,0,1-6-2.54l-13-16.24v9a11.24,11.24,0,0,1-1.33,6,7.83,7.83,0,0,1-7.06,3.87,7.94,7.94,0,0,1-6.53-2.85,10.56,10.56,0,0,1-2.16-6.94V10.59a10.23,10.23,0,0,1,2.2-6.75A7.81,7.81,0,0,1,131,1a8.4,8.4,0,0,1,6.45,2.81A7.14,7.14,0,0,1,139.28,7a19.36,19.36,0,0,1,.23,3.68Zm38.23,14.69a10.12,10.12,0,0,1,6.07,2.5q4,3.15,5.5,3.15a2,2,0,0,0,2.2-2.28,2.53,2.53,0,0,0-1.29-2.13A78.2,78.2,0,0,0,182.56,32q-11.42-4-11.42-14.87a15.57,15.57,0,0,1,6-12.94A20.51,20.51,0,0,1,190.22,0a21.09,21.09,0,0,1,11.69,3.21q5,3.21,5,8.25A7.17,7.17,0,0,1,205,16.53a6.34,6.34,0,0,1-4.88,2q-3.15,0-7-3-2.39-1.86-3.6-1.86a1.83,1.83,0,0,0-2.09,2q0,1.94,5.16,3.53a32.78,32.78,0,0,1,11,5.46q5.2,4.33,5.2,12.14,0,8.5-5.85,13.28-5.42,4.44-14.11,4.44T174.51,50Q170,46.29,170,41.36a7.4,7.4,0,0,1,2.24-5.5A7.73,7.73,0,0,1,177.74,33.62ZM223.42,17.3h-4.52a9.41,9.41,0,0,1-6.22-2,7.29,7.29,0,0,1-2.62-5.88,8,8,0,0,1,1.23-4.23,7,7,0,0,1,3.19-2.88q2-.85,9.28-.85H241q6.33,0,8.2.76A7,7,0,0,1,252.51,5a7.92,7.92,0,0,1,1.27,4.27A8.15,8.15,0,0,1,251,15.45q-2,1.86-6.56,1.86H240.5v25.8a12.36,12.36,0,0,1-1.44,6.53,7.8,7.8,0,0,1-7,3.87A8.09,8.09,0,0,1,225,50q-1.56-2.2-1.56-6.68Zm41.51,29.18a15.09,15.09,0,0,1-2.5,4.29,8.19,8.19,0,0,1-6.26,2.81,8,8,0,0,1-7-3.64,8.4,8.4,0,0,1-1.48-4.86,10.6,10.6,0,0,1,1.06-4.52l16.2-34.49a8.07,8.07,0,0,1,7.86-5,8.26,8.26,0,0,1,8,5.2L297.15,41a9.62,9.62,0,0,1,1,4.14,8.15,8.15,0,0,1-2,5.39,8.23,8.23,0,0,1-6.6,3.07,7.76,7.76,0,0,1-5.5-2,16.32,16.32,0,0,1-3.26-5Zm70.94-13.24,4,6.45a10.39,10.39,0,0,1,1.67,5.54,7.91,7.91,0,0,1-2.48,6A8.49,8.49,0,0,1,333,53.58a7.72,7.72,0,0,1-7-3.95l-7.13-11.69v7a8.55,8.55,0,0,1-2.37,6.11,7.89,7.89,0,0,1-6,2.5,7.72,7.72,0,0,1-6.68-3.15,12,12,0,0,1-2-7.29V11.23q0-9.83,10.59-9.83H323.2a17.45,17.45,0,0,1,9.94,3.09,18.2,18.2,0,0,1,6.72,8A18.83,18.83,0,0,1,341.46,20Q341.46,27,335.88,33.24ZM356.17,17.3h-4.52a9.41,9.41,0,0,1-6.22-2,7.29,7.29,0,0,1-2.62-5.88A8.06,8.06,0,0,1,344,5.14a7,7,0,0,1,3.19-2.88q2-.85,9.28-.85h17.23q6.34,0,8.2.76A7,7,0,0,1,385.26,5a7.94,7.94,0,0,1,1.27,4.27,8.16,8.16,0,0,1-2.81,6.15q-2,1.86-6.56,1.86h-3.91v25.8a12.36,12.36,0,0,1-1.44,6.53,7.8,7.8,0,0,1-7,3.87A8.09,8.09,0,0,1,357.72,50q-1.56-2.2-1.55-6.68Zm50.62,19.88h7.76q4.81,0,7.16,2a8.12,8.12,0,0,1,0,12.22q-2.16,1.82-7.09,1.82H401.29a19.33,19.33,0,0,1-6.45-.72,7.5,7.5,0,0,1-4.52-4.59,23.43,23.43,0,0,1-.68-6.72V13a31.67,31.67,0,0,1,.23-4.74,7.9,7.9,0,0,1,2-4.17,8.29,8.29,0,0,1,4.63-2.47,40.08,40.08,0,0,1,5.39-.23H412.1q4.17,0,4.86.08a8.61,8.61,0,0,1,4.48,1.59,7.36,7.36,0,0,1,3.11,6.15,7.52,7.52,0,0,1-2.73,6.26,10.34,10.34,0,0,1-6.63,1.94h-8.41v3.53h6.7a7.53,7.53,0,0,1,4.88,1.56,5.61,5.61,0,0,1,2,4.59q0,6.19-7.53,6.19h-6.09Zm54.94-3.95,4,6.45a10.39,10.39,0,0,1,1.67,5.54,7.91,7.91,0,0,1-2.49,6,8.49,8.49,0,0,1-6.09,2.37,7.71,7.71,0,0,1-7-3.95l-7.13-11.69v7a8.56,8.56,0,0,1-2.37,6.11,7.88,7.88,0,0,1-6,2.5,7.72,7.72,0,0,1-6.68-3.15,12,12,0,0,1-2-7.29V11.23q0-9.83,10.59-9.83h10.85A17.44,17.44,0,0,1,459,4.5a18.21,18.21,0,0,1,6.72,8A18.83,18.83,0,0,1,467.3,20Q467.3,27,461.73,33.24Z" transform="translate(0 0)"/></svg>